<svg width="50" height="50" viewBox="0 0 50 50" fill="none" xmlns="http://www.w3.org/2000/svg">
<g filter="url(#filter0_d_294_10475)">
<circle cx="25" cy="25" r="18" stroke="#7844DC" stroke-width="4" shape-rendering="crispEdges"/>
</g>
<path d="M14 19C14 17.8954 14.8954 17 16 17H34C35.1046 17 36 17.8954 36 19V31C36 32.1046 35.1046 33 34 33H16C14.8954 33 14 32.1046 14 31V19Z" stroke="#7844DC" stroke-width="2" stroke-linejoin="round"/>
<path d="M17.5 20.5H27" stroke="#7844DC" stroke-linecap="round"/>
<path d="M17.5 23.5H31" stroke="#7844DC" stroke-linecap="round"/>
<path d="M17.5 26.5H29.5" stroke="#7844DC" stroke-linecap="round"/>
<path d="M17.5 29.5H29.5" stroke="#7844DC" stroke-linecap="round"/>
<line x1="17.3242" y1="33.5034" x2="26.5034" y2="37.6758" stroke="#7844DC" stroke-width="2" stroke-linecap="round"/>
<line x1="21.395" y1="33.7675" x2="26.7675" y2="37.605" stroke="#7844DC" stroke-width="2" stroke-linecap="round"/>
<line x1="22.4084" y1="33.872" x2="26.872" y2="37.5916" stroke="#7844DC" stroke-width="2" stroke-linecap="round"/>
<line x1="24.4056" y1="34.1562" x2="27.1562" y2="37.5944" stroke="#7844DC" stroke-width="2" stroke-linecap="round"/>
<defs>
<filter id="filter0_d_294_10475" x="0" y="0" width="50" height="50" filterUnits="userSpaceOnUse" color-interpolation-filters="sRGB">
<feFlood flood-opacity="0" result="BackgroundImageFix"/>
<feColorMatrix in="SourceAlpha" type="matrix" values="0 0 0 0 0 0 0 0 0 0 0 0 0 0 0 0 0 0 127 0" result="hardAlpha"/>
<feOffset/>
<feGaussianBlur stdDeviation="2.5"/>
<feComposite in2="hardAlpha" operator="out"/>
<feColorMatrix type="matrix" values="0 0 0 0 1 0 0 0 0 1 0 0 0 0 1 0 0 0 0.8 0"/>
<feBlend mode="normal" in2="BackgroundImageFix" result="effect1_dropShadow_294_10475"/>
<feBlend mode="normal" in="SourceGraphic" in2="effect1_dropShadow_294_10475" result="shape"/>
</filter>
</defs>
</svg>
