<svg width="36" height="34" viewBox="0 0 36 34" fill="none" xmlns="http://www.w3.org/2000/svg">
<path d="M1.99984 2.09043L5.39879 2.09042" stroke="#023052" stroke-width="2.47197" stroke-linecap="round"/>
<path d="M6.82035 6.82336L30.3358 6.82332C31.9297 6.82331 33.1099 8.30808 32.7486 9.85881L30.3774 20.0375C30.1172 21.1545 29.1215 21.9443 27.9734 21.9443L9.72487 21.9443" stroke="#023052" stroke-width="2.47197" stroke-linecap="round"/>
<path d="M30.4277 26.6772L9.6632 26.6772" stroke="#023052" stroke-width="2.47197" stroke-linecap="round"/>
<path d="M5.89331 2.15186L9.66304 21.7598" stroke="#023052" stroke-width="2.47197" stroke-linecap="round"/>
<mask id="path-5-inside-1_192_2751" fill="white">
<ellipse cx="12.2587" cy="29.812" rx="3.70795" ry="3.68801"/>
</mask>
<path d="M10.7756 29.812C10.7756 28.9555 11.466 28.3089 12.2587 28.3089V38.6911C17.1471 38.6911 21.1578 34.7421 21.1578 29.812H10.7756ZM12.2587 28.3089C13.0514 28.3089 13.7419 28.9555 13.7419 29.812H3.35965C3.35965 34.7421 7.37033 38.6911 12.2587 38.6911V28.3089ZM13.7419 29.812C13.7419 30.6685 13.0514 31.3151 12.2587 31.3151V20.9328C7.37033 20.9328 3.35965 24.8818 3.35965 29.812H13.7419ZM12.2587 31.3151C11.466 31.3151 10.7756 30.6685 10.7756 29.812H21.1578C21.1578 24.8818 17.1471 20.9328 12.2587 20.9328V31.3151Z" fill="#023052" mask="url(#path-5-inside-1_192_2751)"/>
<mask id="path-7-inside-2_192_2751" fill="white">
<ellipse cx="27.4614" cy="29.812" rx="3.70795" ry="3.68801"/>
</mask>
<path d="M25.9782 29.812C25.9782 28.9555 26.6687 28.3089 27.4614 28.3089V38.6911C32.3498 38.6911 36.3605 34.7421 36.3605 29.812H25.9782ZM27.4614 28.3089C28.2541 28.3089 28.9446 28.9555 28.9446 29.812H18.5623C18.5623 34.7421 22.573 38.6911 27.4614 38.6911V28.3089ZM28.9446 29.812C28.9446 30.6685 28.2541 31.3151 27.4614 31.3151V20.9328C22.573 20.9328 18.5623 24.8818 18.5623 29.812H28.9446ZM27.4614 31.3151C26.6687 31.3151 25.9782 30.6685 25.9782 29.812H36.3605C36.3605 24.8818 32.3498 20.9328 27.4614 20.9328V31.3151Z" fill="#023052" mask="url(#path-7-inside-2_192_2751)"/>
<path d="M20.0452 11.4949L20.0452 17.0269" stroke="#023052" stroke-width="2.47197" stroke-linecap="round"/>
<path d="M17.2024 14.1994L22.7643 14.1994" stroke="#023052" stroke-width="2.47197" stroke-linecap="round"/>
</svg>
